<svg aria-hidden="true" style="position: absolute; width: 0; height: 0; overflow: hidden;" version="1.1" xmlns="http://www.w3.org/2000/svg" xmlns:xlink="http://www.w3.org/1999/xlink">
<defs>
<symbol id="icon-business-svgrepo-com" viewBox="0 0 32 32">
<path d="M15.688 17.788c0 0.173 0.14 0.313 0.313 0.313s0.313-0.14 0.313-0.313v0c0-0.173-0.14-0.313-0.313-0.313s-0.313 0.14-0.313 0.313v0z"></path>
<path d="M19.119 19.284h-6.416l-9.328-7.088v0.628l9.156 6.959h6.75l9.344-6.978v-0.625l-9.506 7.103z"></path>

<path d="M22 8.025v-2.953h-12v2.953h-8v18.906h28v-18.906h-8zM11.375 6.447h9.25v1.575h-9.25v-1.575zM28.625 25.556h-25.25v-1.525h25.25v1.525zM28.625 23.528h-25.25v-14.128h25.25v14.128z"></path>
<symbol id="burger-menu" viewBox="0 0 32 32">
<path d="M4.8 8c0-0.884 0.716-1.6 1.6-1.6h19.2c0.884 0 1.6 0.716 1.6 1.6s-0.716 1.6-1.6 1.6h-19.2c-0.884 0-1.6-0.716-1.6-1.6v0zM4.8 16c0-0.884 0.716-1.6 1.6-1.6h19.2c0.884 0 1.6 0.716 1.6 1.6s-0.716 1.6-1.6 1.6h-19.2c-0.884 0-1.6-0.716-1.6-1.6v0zM4.8 24c0-0.884 0.716-1.6 1.6-1.6h19.2c0.884 0 1.6 0.716 1.6 1.6s-0.716 1.6-1.6 1.6h-19.2c-0.884 0-1.6-0.716-1.6-1.6v0z"></path>
</symbol>
</symbol>
</defs>
</svg>
